<svg width="28" height="33" viewBox="0 0 28 33" fill="none" xmlns="http://www.w3.org/2000/svg">
<g clip-path="url(#clip0_638_3828)">
<path d="M6.06232 0.110352C5.48837 0.293526 4.94801 0.553024 4.72006 1.14631C4.57759 1.51673 4.55011 1.93498 4.49414 2.33491C4.46565 2.54047 4.48905 2.75316 4.48905 3.01062C4.06266 3.01062 3.64848 3.00146 3.2343 3.01367C2.8588 3.02487 2.47209 3.0096 2.11083 3.09407C1.32827 3.27622 0.7472 3.95295 0.732952 4.77215C0.693264 6.9906 1.16443 9.06862 2.60235 10.8332C3.35642 11.7593 4.313 12.4014 5.45072 12.7626C5.64407 12.8237 5.77331 12.9102 5.86286 13.0995C6.91307 15.3078 8.44156 17.1161 10.4463 18.5113C11.1169 18.9774 11.4304 19.589 11.4151 20.4031C11.3968 21.4004 11.4151 22.3987 11.4039 23.396C11.4029 23.4957 11.3347 23.6544 11.2594 23.6829C10.1705 24.0961 9.61591 24.896 9.51008 26.0835C9.39407 26.0835 9.27297 26.0835 9.15289 26.0835C7.75567 26.0856 7.00669 26.8407 7.00567 28.2491C7.00567 29.3308 7.01686 30.4126 6.99957 31.4943C6.99346 31.8861 7.09421 32.1904 7.44529 32.3868H20.407C20.758 32.1904 20.8588 31.8861 20.8527 31.4943C20.8354 30.4024 20.8476 29.3094 20.8466 28.2175C20.8466 26.8519 20.0854 26.0846 18.7319 26.0825C18.6078 26.0825 18.4826 26.0825 18.3381 26.0825C18.2892 25.4903 18.1376 24.957 17.7641 24.5021C17.47 24.1429 17.1179 23.8681 16.6804 23.7267C16.4748 23.6605 16.4371 23.5557 16.4392 23.3634C16.4473 22.3661 16.4544 21.3678 16.4392 20.3705C16.427 19.5808 16.7323 18.9784 17.3825 18.5296C19.1369 17.3166 20.5667 15.7901 21.5579 13.9014C21.9344 13.185 22.4005 12.7565 23.1525 12.4411C24.7248 11.7806 25.7282 10.5055 26.3825 8.95363C26.927 7.66835 27.1427 6.31591 27.1366 4.92785C27.1315 3.83389 26.3225 3.03403 25.2183 3.01266C24.6128 3.00044 24.0074 3.01062 23.3662 3.01062C23.3662 2.7267 23.3662 2.4672 23.3662 2.2077C23.3642 1.10662 22.9154 0.491966 21.8724 0.158181C21.8439 0.149022 21.8194 0.126634 21.794 0.110352C16.5511 0.110352 11.3072 0.110352 6.06436 0.110352L6.06232 0.110352ZM10.8025 26.0713C10.8066 25.3997 11.2625 24.9112 11.9463 24.8298C12.4806 24.7657 12.6668 24.5652 12.6678 24.035C12.6698 22.764 12.6688 21.493 12.6678 20.2219C12.6678 19.4129 12.4287 18.6812 11.872 18.093C11.5718 17.7766 11.2004 17.5272 10.8523 17.2586C7.62745 14.7654 5.90866 11.4804 5.7611 7.40377C5.69801 5.65139 5.74584 3.89597 5.74787 2.14156C5.74787 1.61137 5.98803 1.37324 6.52128 1.37324C11.4589 1.37121 16.3964 1.37121 21.335 1.37324C21.8652 1.37324 22.1054 1.6134 22.1054 2.14461C22.1064 3.93057 22.1298 5.71652 22.0932 7.50146C22.0525 9.48585 21.5274 11.3532 20.5881 13.1005C19.6162 14.9088 18.274 16.3875 16.5908 17.5557C15.6261 18.2253 15.1783 19.1524 15.1834 20.3186C15.1895 21.5367 15.1834 22.7559 15.1854 23.974C15.1854 24.5784 15.3422 24.7545 15.9395 24.8308C16.5918 24.9143 17.0508 25.4211 17.0508 26.0713H10.8015H10.8025ZM8.26449 31.1178C8.26449 30.1022 8.26245 29.1171 8.26449 28.132C8.26653 27.5774 8.49651 27.3474 9.05214 27.3464C12.3004 27.3444 15.5487 27.3444 18.797 27.3464C19.3659 27.3464 19.5878 27.5774 19.5888 28.1595C19.5908 29.052 19.5888 29.9445 19.5888 30.8369C19.5888 30.9275 19.5776 31.0181 19.5715 31.1178H8.26347H8.26449ZM23.3632 4.27453C24.0236 4.27453 24.6403 4.2613 25.257 4.27962C25.6346 4.29081 25.8808 4.5554 25.8768 4.93803C25.8595 6.42378 25.6223 7.86374 24.8876 9.18158C24.388 10.0791 23.696 10.7844 22.6966 11.2932C23.5016 8.97602 23.3591 6.63748 23.3622 4.27453H23.3632ZM4.49109 4.27453C4.49719 6.63952 4.34862 8.97907 5.08641 11.2718C4.60303 10.9543 4.12576 10.6429 3.74923 10.2369C2.34998 8.72568 2.005 6.8461 1.98464 4.8729C1.98057 4.52792 2.24516 4.28979 2.60133 4.27962C3.217 4.26333 3.83471 4.27453 4.49109 4.27453Z" fill="#F1F4F9" stroke="#F1F4F9" stroke-width="0.818198"/>
</g>
<defs>
<clipPath id="clip0_638_3828">
<rect width="26.4057" height="32.2785" fill="white" transform="matrix(-1 0 0 1 27.1365 0.110352)"/>
</clipPath>
</defs>
</svg>
