<svg width="40" height="40" viewBox="0 0 40 40" fill="none" xmlns="http://www.w3.org/2000/svg">
<path d="M27.0006 10.4316H22.0914C21.1876 10.4316 20.455 11.1643 20.455 12.068V16.9772H27.0006C27.1867 16.9731 27.3632 17.0597 27.4738 17.2094C27.5845 17.3592 27.6156 17.5532 27.557 17.73L26.346 21.33C26.2344 21.6604 25.9257 21.8838 25.5769 21.8864H20.455V34.1594C20.455 34.6112 20.0886 34.9776 19.6368 34.9776H15.5458C15.094 34.9776 14.7276 34.6112 14.7276 34.1594V21.8864H12.273C11.8212 21.8864 11.4548 21.52 11.4548 21.0682V17.7954C11.4548 17.3436 11.8212 16.9772 12.273 16.9772H14.7276V12.068C14.7276 8.45302 17.6582 5.52246 21.2732 5.52246H27.0006C27.4524 5.52246 27.8188 5.88878 27.8188 6.34066V9.61345C27.8188 10.0653 27.4524 10.4316 27.0006 10.4316Z" fill="#F1F4F9"/>
</svg>
