<svg width="41" height="40" viewBox="0 0 41 40" fill="none" xmlns="http://www.w3.org/2000/svg">
<path fill-rule="evenodd" clip-rule="evenodd" d="M27.0925 5.52246H14.0013C9.48254 5.52246 5.81934 9.18566 5.81934 13.7044V26.7956C5.81934 31.3144 9.48254 34.9776 14.0013 34.9776H27.0925C31.6112 34.9776 35.2745 31.3144 35.2745 26.7956V13.7044C35.2745 9.18566 31.6112 5.52246 27.0925 5.52246ZM32.4108 26.7956C32.4018 29.729 30.0259 32.1049 27.0925 32.1139H14.0013C11.0678 32.1049 8.69201 29.729 8.68303 26.7956V13.7044C8.69201 10.771 11.0678 8.39514 14.0013 8.38615H27.0925C30.0259 8.39514 32.4018 10.771 32.4108 13.7044V26.7956ZM28.3198 14.1135C29.2236 14.1135 29.9562 13.3809 29.9562 12.4771C29.9562 11.5734 29.2236 10.8407 28.3198 10.8407C27.416 10.8407 26.6834 11.5734 26.6834 12.4771C26.6834 13.3809 27.416 14.1135 28.3198 14.1135ZM20.5469 12.8862C16.48 12.8862 13.1831 16.1831 13.1831 20.25C13.1831 24.317 16.48 27.6138 20.5469 27.6138C24.6138 27.6138 27.9107 24.317 27.9107 20.25C27.9151 18.2957 27.1406 16.4202 25.7587 15.0382C24.3767 13.6563 22.5013 12.8819 20.5469 12.8862ZM16.0468 20.25C16.0468 22.7354 18.0615 24.7501 20.5469 24.7501C23.0323 24.7501 25.047 22.7354 25.047 20.25C25.047 17.7647 23.0323 15.7499 20.5469 15.7499C18.0615 15.7499 16.0468 17.7647 16.0468 20.25Z" fill="#F1F4F9"/>
</svg>
